<?xml version="1.0" encoding="utf-8"?>
<!-- Generator: Adobe Illustrator 19.0.0, SVG Export Plug-In . SVG Version: 6.00 Build 0)  -->
<svg version="1.1" id="Layer_1" xmlns="http://www.w3.org/2000/svg" xmlns:xlink="http://www.w3.org/1999/xlink" x="0px" y="0px"
	 viewBox="0 0 20 20" style="enable-background:new 0 0 20 20;" xml:space="preserve">
<style type="text/css">
	.st0{fill:#FFFFFF;}
</style>
<g id="XMLID_1_">
	<path id="XMLID_9_" class="st0" d="M5.1,0c3.3,0,6.5,0,9.8,0c0.1,0,0.1,0,0.2,0c0.5,0.1,1.1,0.2,1.6,0.4c2.1,1,3.3,2.7,3.3,5.1
		c0,3,0,5.9,0,8.9c0,1.1-0.3,2.2-1,3.2c-1.1,1.6-2.7,2.4-4.6,2.4c-2.9,0-5.8,0-8.7,0c-0.4,0-0.8,0-1.1-0.1c-2.3-0.5-3.7-1.9-4.3-4.1
		c-0.1-0.3-0.1-0.6-0.2-0.9c0-3.3,0-6.5,0-9.8c0-0.2,0.1-0.4,0.1-0.6C0.6,2.2,2,0.8,4.2,0.2C4.5,0.1,4.8,0.1,5.1,0z M18.2,10
		c0-1.5,0-2.9,0-4.4c0-0.5,0-0.9-0.2-1.3c-0.6-1.6-1.9-2.5-3.6-2.5c-2.9,0-5.8,0-8.7,0C5.2,1.8,4.7,1.8,4.3,2
		C2.7,2.5,1.8,3.9,1.8,5.6c0,2.9,0,5.8,0,8.7c0,0.4,0.1,0.9,0.2,1.3c0.5,1.6,1.9,2.6,3.6,2.6c2.9,0,5.9,0,8.8,0
		c1.3,0,2.4-0.5,3.1-1.6c0.5-0.7,0.7-1.5,0.7-2.3C18.2,12.9,18.2,11.5,18.2,10z"/>
	<path id="XMLID_4_" class="st0" d="M10,15.1c-2.8,0-5.2-2.3-5.1-5.2c0-2.8,2.3-5.2,5.2-5.1c2.8,0,5.1,2.3,5.1,5.1
		C15.1,12.8,12.8,15.2,10,15.1z M13.4,10c0-1.9-1.5-3.4-3.4-3.4c-1.9,0-3.4,1.5-3.4,3.4c0,1.9,1.5,3.4,3.4,3.4
		C11.8,13.4,13.4,11.9,13.4,10z"/>
	<path id="XMLID_3_" class="st0" d="M15.4,3.4c0.7,0,1.3,0.6,1.3,1.3c0,0.7-0.6,1.3-1.3,1.3c-0.7,0-1.3-0.6-1.3-1.3
		C14.1,3.9,14.6,3.4,15.4,3.4z"/>
</g>
</svg>
